<svg width="197" height="196" viewBox="0 0 197 196" fill="none" xmlns="http://www.w3.org/2000/svg">
<path d="M99.0994 89.0059C152.719 89.0059 196.259 132.539 196.259 186.151V195.499H1.93945V186.151C1.93945 132.539 45.4795 89.0059 99.0994 89.0059Z" fill="#DD643B"/>
<path d="M1.21973 1.65039H195.54V11.2889C195.54 64.9007 152 108.434 98.3797 108.434C44.7597 108.434 1.21973 64.9007 1.21973 11.2889V1.65039Z" fill="#DD643B"/>
<path d="M92.3297 87.3672C143.05 87.3672 184.23 128.541 184.23 179.253V184.342H0.429688V179.253C0.429688 128.541 41.6097 87.3672 92.3297 87.3672Z" fill="#313132"/>
<path d="M0.429688 0.5H184.22V8.88871C184.22 56.8813 145.25 95.8453 97.2497 95.8453H87.3897C39.3997 95.8453 0.429688 56.8813 0.429688 8.88871V0.5Z" fill="#313132"/>
<path d="M176.329 3.8701V2.99023H2.39941V3.8701C2.39941 49.2431 37.1494 86.4874 81.4894 90.4668C37.1494 94.4462 2.39941 131.69 2.39941 177.063V181.863H176.329V177.063C176.329 131.69 141.579 94.4462 97.2394 90.4668C141.579 86.4874 176.329 49.2431 176.329 3.8701Z" fill="white"/>
</svg>
