<svg width="200" height="200" viewBox="0 0 200 200" fill="none" xmlns="http://www.w3.org/2000/svg">
<path d="M116.33 33.6133H110.18V0.5H83.28C37.54 0.5 0.459961 37.6397 0.459961 83.4434C0.459961 129.257 37.54 166.387 83.27 166.387H89.42V199.5H116.32C162.06 199.5 199.13 162.36 199.13 116.557C199.13 70.743 162.05 33.6133 116.32 33.6133H116.33Z" fill="#DD643B"/>
<path d="M112.11 34.3444H100.81V1.36133H73.91C33.78 1.36133 1.25 33.9437 1.25 74.1283V84.2747C1.25 124.459 33.78 157.042 73.9 157.042H90.27V190.025H112.11C155.03 190.025 189.83 155.169 189.83 112.18C189.83 69.1904 155.03 34.3343 112.11 34.3343V34.3444Z" fill="#313132"/>
<path d="M109.21 37.0493H93.1004V4.22656H76.0504C35.9204 4.22656 3.40039 36.809 3.40039 76.9936C3.40039 117.178 35.9304 149.761 76.0504 149.761H92.9104V182.583H109.21C149.33 182.583 181.86 150.001 181.86 109.816C181.86 69.6317 149.33 37.0493 109.21 37.0493Z" fill="white"/>
</svg>
