<svg width="208" height="208" viewBox="0 0 208 208" fill="none" xmlns="http://www.w3.org/2000/svg">
<path d="M98.4298 196.373C152.626 196.373 196.56 152.414 196.56 98.1866C196.56 43.9597 152.626 0 98.4298 0C44.2341 0 0.299805 43.9597 0.299805 98.1866C0.299805 152.414 44.2341 196.373 98.4298 196.373Z" fill="#313132"/>
<path d="M95.6795 188.419C146.898 188.419 188.419 146.874 188.419 95.6256C188.419 44.3771 146.898 2.83203 95.6795 2.83203C44.4606 2.83203 2.93945 44.3771 2.93945 95.6256C2.93945 146.874 44.4606 188.419 95.6795 188.419Z" fill="white"/>
<path d="M114.569 1.33008C161.089 9.03452 196.569 49.4578 196.569 98.196C196.569 152.427 152.629 196.383 98.4394 196.383C44.2494 196.383 2.45937 154.538 0.389375 102.138C0.369375 102.889 0.359375 103.639 0.359375 104.39C0.359375 161.613 46.7194 207.999 103.909 207.999C161.099 207.999 207.459 161.613 207.459 104.39C207.459 50.7686 166.749 6.67316 114.579 1.33008H114.569Z" fill="#DD643B"/>
</svg>
